Patient4_TMGait_0pt6_02_right_43_EMG.mot
version=1
nRows=26
nColumns=33
inDegrees=no
endheader
time	1LAddLong	2LGlutMax	3LGlutMed	4LIliopsoas	5LSemiMemb	6LBicFemLong	7LRecFem	8LVastMed	9LVastLat	10LGasMed	11LTibAnt	12lTibPost	13LPeroneusLong	14LSol	15LExtDigLong	16LFlexDigLong	17RAddLong	18RGlutMax	19RGlutMed	20RIliopsoas	21RSemiMemb	22RBicFemLong	23RRecFem	24RVastMed	25RVastLat	26RGasMed	27RTibAnt	28RTibPost	29RPeroneusLong	30RSol	31RExtDigLong	32RFlexDigLong
53.18	-0.002136	-0.12909	-0.103	-0.00061	0.00946	0.11124	0.059662	0.000763	-0.062866	-0.13245	0.06958	-0.004425	0	0.34241	1.0367	0.001526	-0.10773	-0.11337	-0.57388	0.22232	0.028229	0.089569	0.066223	-0.15289	-0.004578	0.019379	0.34561	-0.002899	-0.14313	0.006104	-0.00885	0.000916
53.181	-0.002747	-0.080261	-0.003357	0.002899	0.018158	0.13947	0.046844	0.007019	-0.02243	-0.076904	0.27618	-0.00473	-0.042419	0.23895	-0.11459	0.004425	-0.13016	-0.085754	-0.35736	0.18692	-0.053101	0.11902	0.044556	-0.16007	-0.00473	0.018005	-0.11627	0.006256	-0.032501	-0.048218	-0.010681	0.008087
53.182	-0.005035	-0.084839	0.010376	0.015869	0.007477	0.15259	0.039978	0.007477	0.042114	-0.076752	0.18753	0.001678	0.017853	0.15259	-0.92377	0.002747	-0.1413	-0.051575	-0.37308	0.22171	-0.066223	0.11139	0.037384	-0.12222	0.011444	0.030365	-0.49774	-0.002136	0.068054	-0.031128	-0.011292	0.02594
53.183	0.000153	-0.11063	0.033722	0.000458	0.015717	0.18616	0.066376	0.007324	0.032501	-0.036469	-0.016479	0.002747	0.050507	-0.023346	-0.77545	0.003662	-0.11002	-0.072327	-0.6337	0.18845	-0.04776	0.11826	0.020905	-0.07431	0.016479	0.017395	-0.14832	-0.001068	0.077515	-0.056763	-0.00946	0.015411
53.184	-0.011902	-0.041962	0.059357	-0.020294	-0.019836	0.15274	0.1004	0.002594	0.039825	-0.050354	-0.24155	0.00412	0.10117	-0.11597	-0.75516	-0.012512	-0.07019	-0.054626	-0.57419	0.10284	-0.015564	0.1149	0.02594	-0.052643	0.019379	0.019989	-0.09903	-0.003052	0.063934	-0.11292	-0.005188	0.013733
53.185	-0.018616	-0.03418	0.008545	0.041962	-0.05188	-0.20935	0.15091	0.007477	0.037231	-0.028229	-0.16266	0.00946	0.035095	-0.19028	-0.65582	-0.006409	-0.034332	-0.039215	-0.40009	-0.052643	0.00412	0.086517	0.005493	-0.050812	0.025482	0.014038	-0.21515	-0.004578	0.06424	-0.10834	-0.007477	0.014343
53.186	-0.008087	-0.033722	-0.016174	0.043335	-0.035706	-0.33218	0.18158	0.006866	-0.030518	-0.010223	-0.11612	0.004272	-0.018768	-0.24658	-0.36591	0.009308	0.022278	-0.030212	-0.45425	-0.13733	0.014191	0.040894	-0.01236	-0.032654	0.010986	0.011292	-0.33188	-0.003357	-0.02121	-0.097198	-0.00412	0.021973
53.187	0.008392	-0.039825	-0.066833	0.02655	-0.019989	-0.21042	0.17822	0.001526	-0.082092	0.004272	-0.093231	0.001068	-0.018311	-0.16296	-0.2858	0.011292	0.055695	0.00885	-0.35767	0.009308	0.005646	-0.010071	0.00885	0.042572	0.023041	0.004883	0.04425	-0.002594	-0.14236	-0.093384	-0.007019	0.009613
53.188	0.023193	-0.009155	-0.075378	0.01236	-0.035553	-0.13992	0.14191	0.00061	-0.05722	0.032043	-0.027313	0.010071	-0.059814	0.070648	0.1004	-0.007019	0.063629	0.010986	-0.33279	0.001984	0.007629	-0.003204	-0.005188	0.05722	0.006561	-0.001373	0.088654	-0.003662	-0.31479	-0.027771	-0.006104	0.00946
53.189	0.031891	-0.011749	-0.11887	-0.000916	0.061035	0.13382	0.066376	0.003052	-0.057068	0.052795	-0.052948	0.000458	-0.048676	0.009613	0.26764	-0.0177	0.051575	-0.036926	-0.3186	0.074463	-0.011597	0.001221	0.030212	0.003815	0.011902	-0.010223	-0.11993	-0.006714	-0.13229	0.027161	0.001221	0.000153
53.19	0.026093	-0.012512	-0.021057	0.003204	0.096741	0.24963	0.018463	-0.004425	-0.063171	0.038605	-0.033569	0.007629	-0.035858	0.023041	0.215	-0.000153	0.034485	-0.049133	-0.14114	0.010834	0.053253	0.011902	-0.019684	-0.007172	0.006866	-0.002899	-0.14542	-0.002594	0.30777	-0.015106	-0.009155	0.015717
53.191	0.024414	-0.019684	0.055695	0.00412	0.074463	0.1915	-0.058899	-0.001526	-0.007935	0.018463	0.025635	0.009155	0.003967	0.020447	0.076752	-0.008087	0.055389	-0.071411	0.37445	-0.098572	0.053711	0.000916	0.020447	-0.026398	0.003967	0.008087	-0.02243	-0.002899	0.31525	-0.088196	-0.005798	0.010834
53.192	0.016174	-0.031128	0.023804	-0.003357	0.023956	-0.014801	0.011139	-0.010376	-0.051727	0.042877	-0.043488	-0.002747	0.03006	-0.028229	0.097046	0.009003	0.16861	-0.11932	0.2977	-0.10025	-0.048981	-0.033875	-0.003052	-0.11139	-0.018768	0.004578	0.29648	-0.001678	0.45853	-0.16266	-0.013123	0.019836
53.193	0.00351	0.007477	0.027313	0.021667	0.018768	-0.27069	0.074463	0.046692	-0.02243	0.056	-0.18433	0.001221	0.006104	0.042114	0.21561	0.034485	0.18692	-0.10773	-0.12802	-0.051117	-0.075989	-0.047302	0.030365	-0.13062	-0.023651	0.009766	0.33814	-0.002594	0.20523	-0.16419	-0.008087	0.014648
53.194	0.002441	0.015564	0.019073	0.011292	0.021667	-0.21515	0.089417	0.030365	0.031586	0.050354	-0.13565	-0.000916	0.001831	0.10483	-0.027008	-0.019226	0.13351	-0.12268	-0.044403	-0.005798	-0.003815	-0.028381	0.02594	-0.16464	-0.023956	-0.018005	-0.070648	0.005341	0.28625	-0.12085	-0.005493	0.009766
53.195	0.016632	0.019073	0.041351	0.003052	0.059509	-0.11383	0.031281	0.020447	0.1532	0.06134	0.032043	0.006561	0.046997	0.16251	-0.00946	-0.033569	0.055237	-0.11169	-0.31189	-0.044556	0.041809	-0.023804	0.026855	-0.16678	-0.01358	-0.019989	-0.53146	-0.002747	0.79392	-0.083313	-0.003052	0.009766
53.196	0.010681	0.011139	-0.02243	0.020294	0.087433	0.006104	0.06897	0.006714	0.049286	0.077209	0.070343	0.011749	0.050964	0.061646	0.17456	0.04776	-0.023193	-0.10361	-0.24551	-0.076752	-0.023499	-0.010376	-0.014343	-0.04364	0.013123	-0.013733	-0.26886	-0.000458	0.51712	-0.10468	-0.00885	0.018921
53.197	0.010071	0.012054	0.005341	0.005798	0.051575	0.039215	0.099335	-0.005798	0.040283	0.068512	0.098572	0.004578	0.058289	-0.045166	0.11612	0.025177	-0.05188	-0.14313	-0.063782	-0.24628	0.10468	0.026855	-0.031586	-0.048218	0.006561	0.001373	0.41061	-0.002441	-0.20096	-0.16403	-0.006104	0.020294
53.198	0.006866	0.013428	-0.001526	0.013275	0.052948	0.025635	0.054169	-0.005341	0.076904	0.080719	0.11093	0.005798	0.018616	-0.17029	0.20645	-0.35919	-0.078735	-0.11231	-0.032501	-0.33279	-0.045166	0.038757	-0.046539	-0.001068	0.03006	-0.000763	0.79285	-0.001373	-0.63431	-0.14984	-0.005646	0.023651
53.199	0.012054	0.004883	-0.009003	0.002289	0.058289	0.028687	0.047607	-0.001221	0.055084	0.083008	0.054626	0.011749	-0.038605	-0.076599	0.25223	-0.028381	-0.040436	-0.078583	-0.44556	-0.1297	-0.027771	-0.024719	-0.03891	-0.002899	0.015106	0.001373	1.0115	-0.001373	-0.5954	-0.084991	-0.006104	0.025787
53.2	0.006256	0.034943	-0.010529	0.00061	0.036316	0.003052	0.022583	0.009918	0.016479	0.063782	0.068359	0.004578	-0.031738	0.054016	0.056152	0.14343	0.035706	0.007019	-0.57831	0.085449	0.050201	-0.028534	0.010071	-0.01358	0.014496	0.002136	0.70297	-0.002899	-0.23819	-0.0383	-0.009155	0.023499
53.201	0.000763	0.041962	-0.00885	-0.002136	0.02533	0.011749	0.023499	0.00473	0.023956	0.059509	0.05188	0.000153	-0.021973	0.023041	0.035248	0.081329	0.073395	-0.049286	-0.40497	0.27741	0.093536	-0.000916	-0.014038	0.001526	0.021057	-0.007019	0.12528	-0.006104	0.1033	0.094757	-0.006256	0.023193
53.202	0.008698	0.063629	0.002289	-0.004272	0.015106	-0.001678	0.035706	0.004883	0.034943	0.056458	-0.027618	0.003967	-0.046082	-0.001373	0.085449	0.045929	0.036621	-0.087433	-0.31479	0.21316	0.067749	-0.004578	-0.010986	0.013428	0.020294	-0.015259	-0.74341	-0.006714	0.15503	0.23911	-0.007324	0.029297
53.203	0.007629	0.068054	0.005798	0.002747	0.025177	0.001068	0.073242	-0.00824	0.026703	0.05661	-0.23666	0.005188	-0.014496	0.000458	0.25543	0.006409	0	-0.058899	-0.38925	0.056305	-0.012665	0.0354	0.024719	-0.032196	0.01709	-0.016937	-0.40329	-0.007629	0.004578	0.20081	-0.007782	0.017242
53.204	0.009308	0.045013	-0.000153	0.010529	0.020599	0.022125	0.090637	0.006104	0	0.07309	-0.11124	0.004425	0.004272	0.043182	-0.070496	-0.003357	-0.036926	-0.087585	-0.68771	0.08728	-0.058899	0.062866	0.010834	-0.020447	-0.001373	-0.009766	0.070038	-0.003967	-0.17853	0.1178	-0.010376	0.016632
53.205	0.010071	0.055237	-0.029144	0.014496	0.014038	0.055847	0.10513	-0.000305	-0.005035	0.089417	0.20294	-0.00473	-0.076141	0.031586	-0.16403	-0.004883	-0.039215	-0.10132	-0.74051	0.085449	-0.053711	0.005798	0.019531	-0.066833	-0.012512	-0.009918	-0.22827	-0.006866	-0.17517	0.11917	-0.002899	0.01236
